# xmcd
#
# Track frame offsets:
#	150
#	4515
#	10257
#	13902
#	26042
#	32972
#	37550
#	49552
#	58410
#	63000
#	71440
#	77047
#	85165
#	91890
#	99907
#	110210
#	117015
#	121675
#	129015
#	135472
#	140187
#	148662
#	153280
#	161772
#	170142
#	178202
#	191412
#	194452
#	205780
#	219275
#
# Disc length: 3009 seconds
#
# Revision: 1
# Processed by: cddbd v1.5.1PL2 Copyright (c) Steve Scherf et al.
# Submitted via: audiograbber 1.83.01
#
DISCID=940bbf1e
DTITLE=Florian Michlbauer - Ewige Superhits für Steirische Harmonika
DYEAR=1900
DGENRE=
TTITLE0=Loisachtallied - B-Es-As-Des
TTITLE1=Der alte Jäger - B-Es-As-Des
TTITLE2=Wenn ich auf hohen Bergen steh - B-Es-As-Des
TTITLE3=Schau das Alpenglühn - B-Es-As-Des
TTITLE4=Hey Mann Polka - B-Es-As-Des
TTITLE5=Hohe Tannen - B-Es-As-Des
TTITLE6=Die schöne Burgenländerin - B-Es-As-Des
TTITLE7=Timple Boarischer - B-Es-As-Des
TTITLE8=Wohl ist die Welt so groß und weit - B-Es-As-Des
TTITLE9=Steirischer Brauch - B-Es-As-Des
TTITLE10=I bin a Steirerbua - B-Es-As-Des
TTITLE11=Edelweiß-Walzer - B-Es-As-Des
TTITLE12=Das Mädchen aus dem Grödnertal - B-Es-As-Des
TTITLE13=Drunt im Stoanagrabn - B-Es-As-Des
TTITLE14=Die Fischerin vom Bodensee - B-Es-As-Des
TTITLE15=Patrona Bavariae - B-Es-As-Des
TTITLE16=Warum bist du gekommen - B-Es-As-Des
TTITLE17=Gib mir als Souvenir ein kleines Bild von Dir - B-Es-As-Des
TTITLE18=Oh Katharina - B-Es-As-Des
TTITLE19=Die boarischen Berg - B-Es-As-Des
TTITLE20=Der Mond hält seine Wacht - B-Es-As-Des
TTITLE21=Steig ich den Berg hinan - B-Es-As-Des
TTITLE22=Kammerfensterl-Tango - B-Es-As-Des
TTITLE23=Wasserleitungsmarsch - B-Es-As-Des
TTITLE24=Radltag-Polka - B-Es-As-Des
TTITLE25=Tiroler Holzhackerbuam - B-Es-As-Des
TTITLE26=Juche Tirolerbua - B-Es-As-Des
TTITLE27=Du bist die Rose vom Wörthersee - B-Es-As-Des
TTITLE28=Tiroler Lieder Potpourri - B-Es-As-Des
TTITLE29=Drei Finger auf`s Herz - B-Es-As-Des
EXTD=Stefan Wachtberg und Florian Michlbauer sind eine Person
EXTT0=
EXTT1=
EXTT2=
EXTT3=
EXTT4=
EXTT5=
EXTT6=
EXTT7=
EXTT8=
EXTT9=
EXTT10=
EXTT11=
EXTT12=
EXTT13=
EXTT14=
EXTT15=
EXTT16=
EXTT17=
EXTT18=
EXTT19=
EXTT20=
EXTT21=
EXTT22=
EXTT23=
EXTT24=
EXTT25=
EXTT26=
EXTT27=
EXTT28=
EXTT29=
PLAYORDER=
